<svg width="50" height="50" viewBox="0 0 50 50" fill="none" xmlns="http://www.w3.org/2000/svg">
<rect x="0.5" y="0.5" width="49" height="49" rx="24.5" fill="black" stroke="url(#paint0_linear_1_126)"/>
<rect x="1" y="1" width="48" height="48" rx="24" fill="url(#paint1_linear_1_126)"/>
<rect width="48" height="48" rx="24" transform="matrix(-1 0 0 1 49 1)" fill="url(#paint2_linear_1_126)"/>
<rect width="48" height="48" rx="24" transform="matrix(-4.37114e-08 1 1 4.37114e-08 1 1)" fill="url(#paint3_linear_1_126)"/>
<rect width="48" height="48" rx="24" transform="matrix(4.37114e-08 -1 -1 -4.37114e-08 49 49)" fill="url(#paint4_linear_1_126)"/>
<rect width="44.1156" height="44.1156" rx="22.0578" transform="matrix(4.37114e-08 -1 -1 -4.37114e-08 47.0579 47.0578)" fill="url(#paint5_linear_1_126)"/>
<rect width="44.1156" height="44.1156" rx="22.0578" transform="matrix(4.37114e-08 -1 -1 -4.37114e-08 47.0579 47.0578)" fill="url(#paint6_linear_1_126)"/>
<defs>
<linearGradient id="paint0_linear_1_126" x1="25" y1="1" x2="25" y2="49" gradientUnits="userSpaceOnUse">
<stop/>
<stop offset="1" stop-color="#A8A8A8"/>
</linearGradient>
<linearGradient id="paint1_linear_1_126" x1="49" y1="25" x2="1" y2="25" gradientUnits="userSpaceOnUse">
<stop stop-color="white" stop-opacity="0"/>
<stop offset="1" stop-color="#111111"/>
</linearGradient>
<linearGradient id="paint2_linear_1_126" x1="13.1792" y1="24" x2="0" y2="24" gradientUnits="userSpaceOnUse">
<stop stop-color="white" stop-opacity="0"/>
<stop offset="1" stop-color="#111111"/>
</linearGradient>
<linearGradient id="paint3_linear_1_126" x1="14.7692" y1="24" x2="7.11556e-07" y2="24" gradientUnits="userSpaceOnUse">
<stop stop-color="white" stop-opacity="0"/>
<stop offset="1" stop-color="white"/>
</linearGradient>
<linearGradient id="paint4_linear_1_126" x1="14.4336" y1="24" x2="6.71542e-07" y2="24" gradientUnits="userSpaceOnUse">
<stop stop-color="white" stop-opacity="0"/>
<stop offset="1" stop-color="white"/>
</linearGradient>
<linearGradient id="paint5_linear_1_126" x1="44.1156" y1="22.0578" x2="-9.64177e-07" y2="22.0578" gradientUnits="userSpaceOnUse">
<stop stop-color="#D9D9D9"/>
<stop offset="1"/>
</linearGradient>
<linearGradient id="paint6_linear_1_126" x1="5.73758" y1="22.0578" x2="-9.94514" y2="22.0578" gradientUnits="userSpaceOnUse">
<stop stop-color="white" stop-opacity="0"/>
<stop offset="1" stop-color="white"/>
</linearGradient>
</defs>
</svg>
